<svg width="374" height="76" viewBox="0 0 374 76" fill="none" xmlns="http://www.w3.org/2000/svg">
<path d="M145.525 49.1598C141.054 49.1598 139.936 47.9836 139.936 41.5145C139.936 38.2532 140.815 37.077 143.982 37.077H151.381C154.069 37.077 155.479 35.6602 155.479 32.7197C155.479 30.8753 155.532 8.87505 155.532 8.87505C155.612 4.99895 153.403 4.65144 150.343 4.09007C148.932 3.82275 145.02 3.0208 145.02 4.65144C145.02 7.9929 148.826 7.05729 148.826 10.6393C148.826 11.4146 148.799 11.7888 148.799 13.2591C148.799 15.2372 147.681 17.4827 144.514 17.4827C143.21 17.4827 138.366 17.4292 135.518 17.4292C132.671 17.4292 129.983 17.4292 127.907 17.4292C125.485 17.4292 124.048 16.4936 124.048 12.9383V10.2918C124.048 7.75232 121.226 6.95036 118.033 6.3088C115.877 5.93456 112.603 5.8811 112.603 7.64539C112.603 10.7997 117.367 9.89085 117.367 14.8362V33.0673C117.367 36.0345 118.139 37.077 120.774 37.077H127.268C131.047 37.077 131.872 37.6651 131.872 42.263C131.872 46.8608 130.675 48.7588 126.523 48.7588C121.04 48.7588 102.57 48.732 101.345 48.732C100.121 48.732 97.2734 49.6677 97.2734 50.7637C97.2734 53.5438 102.623 54.8269 104.167 54.5596C107.919 53.8913 110.181 53.8913 112.178 53.8913C117.261 53.8913 117.979 56.0833 117.979 58.9703C117.979 61.1356 117.926 64.7711 117.926 66.776C117.926 70.8926 120.082 72.3896 124.926 72.3896C124.926 72.3896 156.171 72.3629 159.392 72.3629C161.68 72.3629 163.277 71.2936 163.277 70.1174C163.277 67.6046 160.642 65.279 158.38 65.279C155.213 65.279 151.327 66.8294 143.237 66.8294H129.397C127.108 66.8294 126.496 65.3057 126.496 63.6751V58.9703C126.496 55.3081 128.732 53.9715 133.043 53.9715H164.209C168.307 53.9715 173.444 54.5328 173.444 51.2983C173.444 45.845 156.57 49.1865 145.552 49.1865L145.525 49.1598ZM127.986 32.4257C125.857 32.4257 124.846 30.6881 124.846 28.5763V26.1705C124.846 24.0319 126.576 22.2944 128.705 22.2944H144.008C146.138 22.2944 147.867 24.0319 147.867 26.1705V28.5763C147.867 30.7149 146.138 32.4257 144.008 32.4257H127.986Z" fill="white"/>
<path d="M239.827 54.0238C238.655 53.5159 237.245 53.1683 235.621 53.0079C233.971 52.9278 232.241 52.9545 230.432 53.1951C228.569 53.4089 226.892 53.8099 225.481 54.3178C225.215 54.398 224.683 54.5317 223.565 54.6386C222.634 54.7188 221.569 54.799 220.371 54.8792C218.216 54.9594 215.687 54.9594 213.611 54.8792V40.8183L227.131 40.7381C228.382 40.7381 229.42 40.4708 230.245 39.9094C231.07 39.3213 231.603 38.5995 231.789 37.7441C231.895 36.9154 231.603 36.1135 230.964 35.2848C230.299 34.5096 229.287 33.975 227.823 33.6007C227.238 33.4938 226.519 33.4136 225.721 33.3869C224.922 33.3334 224.071 33.3334 223.246 33.3869C222.447 33.4136 221.622 33.5205 220.904 33.6809C220.105 33.8413 219.52 34.0284 219.121 34.2957C218.402 34.7234 217.55 35.071 216.592 35.2314C215.368 35.4719 214.809 35.5254 214.569 35.5254L199.426 35.6858C199 35.6858 198.654 35.5789 198.361 35.2848C198.255 35.2313 197.935 34.9908 197.935 34.2155L197.802 18.4973L226.652 18.4438C227.957 18.4438 229.048 18.1765 229.846 17.6686C230.751 17.1072 231.283 16.4122 231.363 15.637C231.576 14.8083 231.31 13.9796 230.565 13.1777C229.899 12.4559 228.888 11.8946 227.398 11.4936C226.839 11.4134 226.093 11.3065 225.295 11.253C224.47 11.1995 223.618 11.1995 222.793 11.253C221.968 11.3065 221.143 11.4401 220.451 11.5738C219.679 11.7342 219.094 11.948 218.721 12.1886C217.976 12.643 217.204 12.9104 216.299 12.9906C215.341 13.0707 214.569 13.1242 214.064 13.1242L197.297 13.2846C195.513 12.9905 193.73 12.6965 192 12.4025C190.191 12.1351 188.674 12.0282 187.449 12.1351C185.852 12.2955 184.841 12.5628 184.256 13.0173C183.484 13.5252 183.138 14.0598 183.218 14.7014C183.244 15.2627 183.51 15.7707 184.096 16.1984C184.602 16.5726 185.134 16.7865 185.719 16.8667C187.183 17.2676 188.168 17.6953 188.7 18.0428C189.126 18.3369 189.312 18.925 189.312 19.8071L189.472 34.5363C189.472 35.8996 189.738 37.0224 190.217 37.8778C190.696 38.7332 191.388 39.4282 192.16 39.8559C192.905 40.3104 193.784 40.6312 194.742 40.7648C195.62 40.8717 196.605 40.9519 197.589 40.9519L205.175 40.8717V54.8524H194.449C192.692 54.8524 191.149 54.8524 189.978 54.799C188.807 54.7722 187.742 54.7188 186.784 54.6119C185.852 54.5584 185.001 54.5049 184.149 54.4247L181.328 54.1574C180.29 54.104 179.359 54.1574 178.56 54.3713C177.655 54.5851 177.07 54.9059 176.697 55.3603C176.271 56.0019 176.351 56.7237 176.857 57.3652C177.283 57.8999 178.054 58.4078 179.305 58.9691C182.047 60.279 184.335 61.1077 185.932 61.4552C187.077 61.7225 188.088 61.8027 188.94 61.8027C189.339 61.8027 189.738 61.8027 190.084 61.7492C191.149 61.6423 192.107 61.375 192.932 60.974C193.624 60.6532 194.476 60.4126 195.434 60.3324C195.487 60.3324 195.886 60.3324 196.605 60.2523L199.692 60.0384C201.049 59.9582 202.673 59.8513 204.749 59.7711C206.851 59.6909 209.273 59.6374 211.908 59.584H224.523C226.2 59.584 227.744 59.584 229.128 59.6107C230.538 59.6374 231.816 59.6642 233.013 59.7176C235.036 59.8513 236.926 59.7978 238.655 59.6107C241.184 59.2632 241.823 57.8197 241.902 56.6435C241.929 55.8415 241.636 54.7188 239.933 53.997L239.827 54.0238Z" fill="white"/>
<path d="M297.552 7.8327C297.578 7.16441 297.498 6.57631 297.259 6.06841C296.993 5.50704 296.487 5.07933 295.609 4.67836C295.076 4.4645 294.411 4.27738 293.533 4.09026C292.654 3.84967 291.829 3.68928 291.031 3.55562C290.126 3.39523 289.328 3.26157 288.636 3.15465C287.944 3.07445 287.518 2.99426 287.278 2.96753H287.172C286.853 2.91406 286.48 2.91406 286.187 2.91406C285.442 2.91406 283.127 2.91406 282.754 4.5447C282.568 5.37338 282.807 6.57631 284.963 7.48519C286.586 8.18021 287.731 8.84851 288.423 9.40987C288.982 9.86431 289.248 10.7732 289.248 12.0563L289.541 59.5051C289.541 61.109 289.567 62.6595 289.594 64.3703C289.647 65.9742 289.753 67.3643 289.887 68.5672C290.073 69.877 290.339 70.9196 290.685 71.6681C291.217 72.8443 291.989 73.0848 292.575 73.0848H292.654C294.305 73.0848 295.502 71.3473 296.301 67.8454C297.046 64.7178 297.365 60.4942 297.339 55.2815L297.046 12.0296C297.046 11.2009 297.126 10.4257 297.259 9.78412C297.418 9.0089 297.498 8.3406 297.498 7.80597L297.552 7.8327Z" fill="white"/>
<path d="M281.028 43.067C280.31 41.7571 279.511 40.5542 278.659 39.5384L278.58 39.4582C278.074 39.0572 277.675 38.7899 277.302 38.6563C277.009 38.5226 276.663 38.3889 276.317 38.282H276.238C275.945 38.2285 275.625 38.1484 275.333 38.0147C275.067 37.9345 274.694 37.7206 274.268 37.3999C274.162 37.3197 273.842 37.0791 273.097 36.4643C272.512 36.0098 271.846 35.4217 271.154 34.7267C270.436 34.0851 269.664 33.4168 268.812 32.6951C268.147 32.1337 267.615 31.5723 267.109 31.0644C268.094 29.4071 268.972 27.7497 269.77 26.1191C270.675 24.3281 271.5 22.4568 272.352 20.5589C272.937 19.4896 273.31 18.554 273.416 17.7253C273.523 16.7095 272.884 15.6937 271.314 14.5977C270.835 14.2769 270.17 13.9294 269.398 13.5819C268.599 13.2344 267.774 12.9136 266.949 12.6196C266.151 12.2988 265.352 12.0582 264.58 11.8443C263.782 11.577 263.17 11.4968 262.797 11.4968C262.371 11.4701 262.052 11.4434 261.733 11.4434C261.014 11.4434 258.858 11.4434 258.752 12.9938C258.725 14.0363 259.63 14.9987 261.6 16.0679C262.238 16.4422 262.717 16.763 263.037 17.057C263.25 17.2709 263.409 17.5115 263.463 17.8055C263.542 18.0194 263.542 18.3134 263.463 18.6342C263.409 19.0619 263.223 19.5965 263.063 20.2114C262.185 23.0449 261.041 25.9587 259.63 28.8457C258.22 31.7327 256.649 34.4861 254.999 37.0791C253.376 39.6186 251.672 41.971 249.943 44.0561C248.239 46.0609 246.696 47.6916 245.285 48.841C244.513 49.4291 244.114 50.0707 244.061 50.6588C243.981 51.3806 244.247 51.9419 244.833 52.3162C245.125 52.5033 245.525 52.5568 245.977 52.5568C246.27 52.5568 246.563 52.5568 246.962 52.4766C247.76 52.2894 248.692 51.8617 249.756 51.1934C252.684 49.3757 255.452 46.9698 257.98 44.0293C260.322 41.3829 262.425 38.6028 264.394 35.7692C265.06 36.4643 265.831 37.2929 266.656 38.2018C267.854 39.4582 268.998 40.7413 270.116 42.0245C271.287 43.2808 272.405 44.5105 273.47 45.6867C274.454 46.8094 275.333 47.745 275.971 48.4668C276.956 49.5895 277.914 50.338 278.926 50.7925C279.99 51.2469 280.789 51.4073 281.614 51.1667C282.252 50.9796 282.998 50.4717 283.157 49.2153C283.317 48.3064 283.078 47.2104 282.439 45.7402C282.199 45.2857 281.72 44.4303 281.028 43.1205V43.067Z" fill="white"/>
<path d="M373.078 27.2654C372.413 26.5972 371.428 26.116 369.991 25.7685C368.873 25.6081 367.649 25.5279 366.238 25.5546C364.641 25.5546 363.657 25.8487 363.151 26.3833C362.725 26.8377 362.14 27.1318 361.368 27.2922C360.782 27.4258 360.17 27.5328 359.611 27.613L359.452 12.0818C359.452 11.2264 359.531 10.4512 359.665 9.80963C359.824 9.08787 359.877 8.36611 359.877 7.83148C359.931 7.16318 359.851 6.54835 359.611 6.04045C359.345 5.47908 358.813 5.02465 357.961 4.62367C357.429 4.40982 356.737 4.22269 355.859 4.03557C354.954 3.82172 354.129 3.63459 353.277 3.50094C352.372 3.34055 351.574 3.23362 350.882 3.09996C350.19 3.01977 349.737 2.9663 349.524 2.91284H349.418C349.045 2.85937 348.726 2.85938 348.407 2.85938C347.635 2.85938 345.319 2.85937 344.973 4.49001C344.76 5.34543 345 6.54835 347.182 7.48396C348.832 8.17899 349.95 8.84728 350.669 9.40865C351.228 9.88982 351.547 10.7987 351.547 12.1086L351.813 33.1999C350.27 33.7345 348.327 34.3226 345.958 34.8573C343.377 35.5256 340.662 36.1404 337.921 36.7285C335.206 37.2898 332.518 37.7443 329.936 38.1185C327.408 38.466 325.412 38.6799 324.028 38.6799C323.496 38.6799 323.043 38.573 322.67 38.3858C322.591 38.3591 322.404 38.2522 322.404 37.7443V29.8584H338.426C340.183 29.8584 341.194 29.6178 341.726 29.0832C342.205 28.5753 342.472 27.8803 342.472 27.0516C342.472 25.9556 341.407 25.421 340.582 25.1804L342.152 16.7331C342.179 16.3856 342.339 16.0114 342.578 15.6104C342.871 15.1025 343.137 14.5946 343.377 14.0332C343.563 13.3649 343.563 12.8036 343.377 12.2689C343.137 11.6274 342.578 11.1729 341.514 10.8522C340.236 10.5314 338.825 10.4245 337.308 10.5314C335.765 10.6383 334.487 10.9324 333.503 11.4403C333.449 11.467 333.157 11.6007 331.932 11.7076C331.001 11.8145 329.963 11.8947 328.818 11.9482C326.397 12.0284 323.921 12.0284 322.191 11.9482C321.446 11.9482 320.754 11.9482 320.089 11.868L318.093 11.7076C317.507 11.6808 316.869 11.6274 316.177 11.5472C315.538 11.4937 314.899 11.4403 314.234 11.3333C313.835 11.3066 313.489 11.3066 313.196 11.3066C312.53 11.3066 310.588 11.3066 310.108 12.6165C309.869 13.2313 309.709 14.4075 311.413 15.2629C313.089 16.3054 314.553 17.0272 315.698 17.4282C317.986 18.2301 319.61 18.1767 320.701 17.6153C321.047 17.4282 321.393 17.2945 321.686 17.2143C322.112 17.1609 322.431 17.1074 322.697 17.0539C323.016 17.0005 323.389 16.9737 323.762 16.9203C324.188 16.8668 324.56 16.8133 325.013 16.7866C325.252 16.7331 325.758 16.7064 326.796 16.6529C327.621 16.6529 328.579 16.5995 329.537 16.546C330.469 16.546 331.347 16.546 332.252 16.4926C332.704 16.4926 333.13 16.4926 333.449 16.4926L333.343 24.8061C332.811 24.8061 332.119 24.8061 331.294 24.8329C328.712 24.8863 325.917 24.8863 323.788 24.8329C322.378 24.8061 322.085 24.7527 322.058 24.7527H321.952C321.393 24.6725 320.728 24.5923 319.956 24.4853C319.184 24.3784 318.359 24.2448 317.587 24.1378C316.762 24.0576 315.91 23.9774 315.139 23.924C314.314 23.8705 313.595 23.8705 312.903 23.924C310.8 24.1378 309.523 24.8061 308.964 25.8219C308.618 26.4902 308.725 26.9981 308.884 27.2922C309.15 27.907 309.842 28.308 311.013 28.5486C311.652 28.709 312.184 28.8426 312.663 28.9228C313.063 29.003 313.329 29.1367 313.648 29.3505C313.834 29.4842 313.968 29.6446 314.101 29.9386C314.207 30.2861 314.287 30.7406 314.287 31.3554V39.5086C314.287 42.1016 314.819 43.7589 315.91 44.5876C316.948 45.3361 318.492 45.7371 320.621 45.7371C322.484 45.7371 324.933 45.443 327.887 44.9084C330.815 44.3738 333.902 43.652 337.042 42.8233C340.13 42.0214 343.137 41.1659 346.011 40.2036C348.353 39.4284 350.35 38.7334 351.946 38.0651C351.946 40.5511 352.133 42.6629 352.399 44.3738C352.692 46.1113 353.33 47.1539 354.182 47.5014C353.863 47.5281 353.543 47.5548 353.224 47.5816C352.026 47.742 350.829 47.9825 349.604 48.3033C349.312 48.3835 348.407 48.5706 345.506 48.731C343.19 48.838 340.662 48.9449 337.947 48.9983C335.206 49.0518 332.438 49.0518 329.777 48.9449C327.142 48.8647 325.092 48.731 323.682 48.4637C322.032 48.3033 320.914 48.3301 320.142 48.5706C319.024 48.9449 318.758 49.5597 318.732 50.0141C318.678 50.5488 318.918 51.1101 319.397 51.6448C319.823 52.1527 320.302 52.4735 320.754 52.6873C323.256 54.1308 325.199 54.9863 326.663 55.3872C328.153 55.7615 329.431 55.8417 330.548 55.6813C331.533 55.5209 332.491 55.2536 333.29 54.8526C333.982 54.5318 334.833 54.318 335.818 54.211C338.586 54.1308 340.901 54.0506 342.764 53.9972C344.441 53.8903 346.198 53.8368 347.954 53.7833C349.125 53.7566 350.083 53.7031 350.775 53.6764L350.988 63.8879C350.988 66.0799 351.228 68.1383 351.733 69.9828C351.92 70.758 352.532 73.1638 354.182 73.1638H354.235C354.874 73.1638 355.486 72.7629 356.125 71.9876C356.63 71.3461 357.11 70.4639 357.509 69.4481C357.961 68.3521 358.281 67.0957 358.547 65.7591C358.813 64.3691 358.973 62.8721 358.973 61.2147L358.893 53.6497C358.893 53.1952 359.026 52.7141 359.186 52.2596C359.398 51.6715 359.531 51.0834 359.611 50.4953C359.665 49.827 359.505 49.2122 359.106 48.731C358.706 48.2766 357.988 47.9023 356.817 47.5816C356.391 47.5281 355.992 47.5014 355.566 47.5014C356.577 47.1004 357.482 45.8707 358.307 43.6253C359.239 41.2194 359.691 37.9849 359.691 34.0553V32.4514H369.326C370.603 32.4514 371.694 32.2108 372.466 31.7296C373.344 31.195 373.85 30.5 373.956 29.698C374.116 28.8961 373.797 28.1209 373.131 27.3456L373.078 27.2654Z" fill="white"/>
<path d="M28.4829 41.623H12.9401C7.80347 41.623 3.625 45.8199 3.625 50.9792V76H28.4829C33.6461 76 37.8512 71.8032 37.8512 66.6172V41.6498H28.4829V41.623Z" fill="white"/>
<path d="M50.7526 41.623H66.322C71.4852 41.623 75.637 45.8199 75.637 50.9792V76H50.7526C45.616 76 41.4375 71.8032 41.4375 66.6172V41.6498H50.7526V41.623Z" fill="white"/>
<path d="M0 0C11.9233 11.9758 37.8457 -10.1313 37.8457 37.9858C7.7448 37.9858 0 34.2433 0 0Z" fill="white"/>
<path d="M50.7526 37.9864H66.322C71.4852 37.9864 75.637 33.7895 75.637 28.6303V3.60938H50.7526C45.616 3.60938 41.4375 7.80626 41.4375 13.0189V37.9864H50.7526Z" fill="white"/>
</svg>
