<svg width="568" height="115" viewBox="0 0 568 115" fill="none" xmlns="http://www.w3.org/2000/svg">
<path d="M220.889 74.3956C214.101 74.3956 212.405 72.6158 212.405 62.827C212.405 57.8921 213.738 56.1123 218.546 56.1123H229.777C233.858 56.1123 235.999 53.9685 235.999 49.519C235.999 46.728 236.08 13.4379 236.08 13.4379C236.201 7.57275 232.848 7.0469 228.202 6.19746C226.06 5.79296 220.121 4.57947 220.121 7.0469C220.121 12.1031 225.899 10.6874 225.899 16.1076C225.899 17.2807 225.858 17.847 225.858 20.0717C225.858 23.065 224.161 26.4627 219.354 26.4627C217.374 26.4627 210.021 26.3818 205.698 26.3818C201.375 26.3818 197.294 26.3818 194.143 26.3818C190.466 26.3818 188.285 24.9661 188.285 19.5863V15.5818C188.285 11.7391 184.002 10.5256 179.154 9.55478C175.881 8.98849 170.912 8.90759 170.912 11.5773C170.912 16.3503 178.144 14.975 178.144 22.4582V50.0449C178.144 54.5348 179.316 56.1123 183.315 56.1123H193.173C198.91 56.1123 200.163 57.0022 200.163 63.9596C200.163 70.9169 198.345 73.7888 192.042 73.7888C183.719 73.7888 155.681 73.7484 153.822 73.7484C151.964 73.7484 147.641 75.1641 147.641 76.8226C147.641 81.0293 155.761 82.9709 158.105 82.5664C163.801 81.5552 167.235 81.5552 170.266 81.5552C177.982 81.5552 179.073 84.872 179.073 89.2406C179.073 92.517 178.992 98.0182 178.992 101.052C178.992 107.281 182.265 109.546 189.618 109.546C189.618 109.546 237.05 109.506 241.938 109.506C245.413 109.506 247.837 107.888 247.837 106.108C247.837 102.306 243.837 98.7867 240.403 98.7867C235.595 98.7867 229.696 101.133 217.414 101.133H196.405C192.931 101.133 192.002 98.8272 192.002 96.3598V89.2406C192.002 83.699 195.395 81.6765 201.941 81.6765H249.251C255.473 81.6765 263.27 82.526 263.27 77.6316C263.27 69.3798 237.656 74.436 220.929 74.436L220.889 74.3956ZM194.264 49.0741C191.032 49.0741 189.497 46.4449 189.497 43.2494V39.6089C189.497 36.3729 192.123 33.7437 195.355 33.7437H218.586C221.818 33.7437 224.444 36.3729 224.444 39.6089V43.2494C224.444 46.4853 221.818 49.0741 218.586 49.0741H194.264Z" fill="#603D22"/>
<path d="M364.063 81.7489C362.285 80.9803 360.144 80.4545 357.68 80.2118C355.175 80.0905 352.549 80.1309 349.801 80.495C346.973 80.8186 344.428 81.4253 342.287 82.1938C341.883 82.3152 341.075 82.5174 339.378 82.6792C337.964 82.8006 336.348 82.9219 334.53 83.0433C331.257 83.1646 327.419 83.1646 324.267 83.0433V61.7668L344.792 61.6454C346.69 61.6454 348.266 61.2409 349.519 60.3915C350.771 59.5016 351.579 58.4094 351.862 57.115C352.023 55.8611 351.579 54.6476 350.609 53.3937C349.599 52.2206 348.064 51.4116 345.842 50.8453C344.953 50.6835 343.862 50.5622 342.65 50.5217C341.438 50.4408 340.145 50.4408 338.893 50.5217C337.681 50.5622 336.428 50.724 335.338 50.9667C334.125 51.2094 333.237 51.4925 332.631 51.897C331.54 52.5442 330.247 53.0701 328.792 53.3128C326.934 53.6768 326.086 53.7577 325.722 53.7577L302.733 54.0004C302.087 54.0004 301.562 53.8386 301.117 53.3937C300.956 53.3128 300.471 52.9487 300.471 51.7757L300.269 27.9913L344.064 27.9104C346.044 27.9104 347.7 27.5059 348.912 26.7373C350.286 25.8879 351.094 24.8362 351.215 23.6632C351.539 22.4092 351.135 21.1553 350.003 19.9418C348.993 18.8497 347.458 18.0002 345.196 17.3935C344.347 17.2721 343.216 17.1103 342.004 17.0294C340.751 16.9485 339.458 16.9485 338.206 17.0294C336.954 17.1103 335.701 17.3126 334.651 17.5148C333.479 17.7575 332.59 18.0811 332.025 18.4452C330.893 19.1328 329.722 19.5373 328.348 19.6587C326.894 19.78 325.722 19.8609 324.954 19.8609L299.501 20.1036C296.794 19.6587 294.087 19.2137 291.461 18.7688C288.714 18.3643 286.411 18.2025 284.553 18.3643C282.128 18.607 280.593 19.0115 279.704 19.6991C278.533 20.4676 278.008 21.2766 278.129 22.2474C278.169 23.0969 278.573 23.8654 279.462 24.5126C280.23 25.0789 281.038 25.4025 281.926 25.5239C284.149 26.1306 285.643 26.7778 286.451 27.3036C287.098 27.7486 287.381 28.6385 287.381 29.9733L287.623 52.2611C287.623 54.324 288.027 56.0229 288.754 57.3173C289.482 58.6117 290.532 59.6634 291.704 60.3106C292.835 60.9982 294.168 61.4836 295.623 61.6859C296.956 61.8477 298.451 61.969 299.946 61.969L311.46 61.8477V83.0028H295.178C292.512 83.0028 290.168 83.0028 288.391 82.9219C286.613 82.8815 284.997 82.8006 283.543 82.6388C282.128 82.5579 280.836 82.477 279.543 82.3556L275.26 81.9511C273.685 81.8702 272.27 81.9511 271.058 82.2747C269.685 82.5983 268.796 83.0837 268.23 83.7714C267.584 84.7422 267.705 85.8343 268.473 86.8051C269.119 87.6141 270.291 88.3826 272.19 89.2321C276.351 91.2141 279.826 92.4681 282.25 92.9939C283.987 93.3984 285.522 93.5198 286.815 93.5198C287.421 93.5198 288.027 93.5197 288.552 93.4389C290.168 93.277 291.623 92.8726 292.875 92.2658C293.926 91.7804 295.219 91.4164 296.673 91.295C296.754 91.295 297.36 91.295 298.451 91.1737L303.137 90.8501C305.198 90.7287 307.662 90.5669 310.814 90.4456C314.005 90.3242 317.682 90.2433 321.682 90.1624H340.832C343.377 90.1624 345.721 90.1624 347.822 90.2029C349.963 90.2433 351.902 90.2838 353.72 90.3647C356.791 90.5669 359.659 90.486 362.285 90.2029C366.124 89.677 367.093 87.4927 367.214 85.713C367.255 84.4995 366.81 82.8006 364.225 81.7084L364.063 81.7489Z" fill="#603D22"/>
<path d="M451.689 11.8607C451.729 10.8495 451.608 9.95957 451.244 9.19103C450.84 8.34159 450.073 7.69439 448.74 7.08765C447.932 6.76405 446.921 6.4809 445.588 6.19775C444.255 5.83371 443.002 5.59101 441.79 5.38876C440.417 5.14606 439.205 4.94381 438.154 4.78202C437.104 4.66067 436.457 4.53932 436.094 4.49887H435.932C435.447 4.41797 434.882 4.41797 434.437 4.41797C433.306 4.41797 429.791 4.41797 429.226 6.8854C428.943 8.13934 429.306 9.95957 432.579 11.3349C435.043 12.3866 436.781 13.3978 437.831 14.2472C438.68 14.9349 439.084 16.3102 439.084 18.2518L439.528 90.0499C439.528 92.4769 439.568 94.823 439.609 97.4117C439.69 99.8387 439.851 101.942 440.053 103.762C440.336 105.744 440.74 107.322 441.265 108.454C442.073 110.234 443.245 110.598 444.134 110.598H444.255C446.76 110.598 448.578 107.969 449.79 102.67C450.921 97.9376 451.406 91.5465 451.366 83.6589L450.921 18.2113C450.921 16.9574 451.042 15.7843 451.244 14.8135C451.487 13.6405 451.608 12.6292 451.608 11.8203L451.689 11.8607Z" fill="#603D22"/>
<path d="M426.592 65.1664C425.501 63.1844 424.289 61.3641 422.996 59.8271L422.875 59.7057C422.108 59.099 421.502 58.6945 420.936 58.4922C420.491 58.29 419.966 58.0877 419.441 57.9259H419.32C418.875 57.845 418.391 57.7237 417.946 57.5214C417.542 57.4001 416.977 57.0765 416.33 56.5911C416.169 56.4697 415.684 56.1057 414.552 55.1753C413.664 54.4877 412.654 53.5978 411.603 52.5461C410.512 51.5753 409.341 50.5641 408.048 49.4719C407.038 48.6225 406.23 47.7731 405.462 47.0045C406.957 44.4966 408.29 41.9888 409.502 39.5213C410.876 36.8112 412.128 33.9797 413.421 31.1078C414.31 29.4898 414.876 28.0741 415.037 26.8201C415.199 25.283 414.229 23.7459 411.846 22.0875C411.118 21.6021 410.108 21.0763 408.937 20.5504C407.725 20.0246 406.472 19.5392 405.22 19.0942C404.008 18.6088 402.796 18.2448 401.624 17.9212C400.412 17.5167 399.483 17.3954 398.917 17.3954C398.271 17.3549 397.786 17.3145 397.301 17.3145C396.21 17.3145 392.938 17.3145 392.776 19.6605C392.736 21.2381 394.109 22.6943 397.099 24.3122C398.069 24.8785 398.796 25.3639 399.281 25.8089C399.604 26.1325 399.846 26.4965 399.927 26.9415C400.048 27.2651 400.048 27.71 399.927 28.1954C399.846 28.8426 399.563 29.6516 399.321 30.5819C397.988 34.8696 396.25 39.2786 394.109 43.6472C391.968 48.0157 389.584 52.1821 387.079 56.1057C384.615 59.9484 382.029 63.508 379.403 66.663C376.817 69.6968 374.474 72.1642 372.333 73.9035C371.161 74.7934 370.555 75.7642 370.474 76.6541C370.353 77.7463 370.757 78.5957 371.646 79.162C372.09 79.4451 372.696 79.526 373.383 79.526C373.828 79.526 374.272 79.526 374.878 79.4047C376.09 79.1215 377.504 78.4743 379.12 77.4631C383.564 74.7125 387.766 71.0721 391.604 66.6226C395.16 62.6181 398.351 58.4113 401.341 54.1237C402.351 55.1753 403.523 56.4293 404.775 57.8046C406.593 59.7057 408.331 61.6473 410.027 63.5889C411.805 65.49 413.502 67.3507 415.118 69.1305C416.613 70.8294 417.946 72.2451 418.916 73.3372C420.411 75.0361 421.865 76.1687 423.4 76.8564C425.016 77.544 426.229 77.7867 427.481 77.4227C428.451 77.1395 429.582 76.371 429.824 74.4698C430.067 73.0945 429.703 71.4361 428.733 69.2114C428.37 68.5237 427.643 67.2293 426.592 65.2473V65.1664Z" fill="#603D22"/>
<path d="M566.356 41.2548C565.346 40.2435 563.851 39.5154 561.669 38.9896C559.973 38.7469 558.114 38.6255 555.973 38.666C553.549 38.666 552.054 39.1109 551.286 39.9199C550.64 40.6076 549.751 41.0525 548.579 41.2952C547.69 41.4975 546.761 41.6593 545.913 41.7806L545.67 18.2794C545.67 16.985 545.792 15.8119 545.994 14.8411C546.236 13.749 546.317 12.6569 546.317 11.8479C546.398 10.8366 546.276 9.90627 545.913 9.13773C545.509 8.28829 544.701 7.60064 543.408 6.9939C542.6 6.6703 541.549 6.38715 540.216 6.104C538.843 5.78041 537.59 5.49726 536.297 5.29501C534.924 5.05231 533.711 4.89051 532.661 4.68827C531.611 4.56692 530.924 4.48602 530.601 4.40512H530.439C529.873 4.32422 529.389 4.32422 528.904 4.32422C527.732 4.32422 524.217 4.32422 523.692 6.79165C523.369 8.08604 523.732 9.90627 527.045 11.322C529.55 12.3737 531.247 13.3849 532.338 14.2344C533.186 14.9625 533.671 16.3378 533.671 18.3198L534.075 50.2346C531.732 51.0436 528.783 51.9335 525.187 52.7425C521.268 53.7537 517.147 54.6841 512.985 55.574C508.864 56.4234 504.784 57.111 500.865 57.6773C497.027 58.2032 493.997 58.5268 491.896 58.5268C491.088 58.5268 490.401 58.365 489.835 58.0818C489.714 58.0414 489.431 57.8796 489.431 57.111V45.1784H513.753C516.42 45.1784 517.955 44.8143 518.763 44.0053C519.49 43.2368 519.894 42.1851 519.894 40.9312C519.894 39.2727 518.278 38.4637 517.026 38.0997L519.409 25.3176C519.45 24.7918 519.692 24.2255 520.056 23.6187C520.5 22.8502 520.904 22.0816 521.268 21.2322C521.551 20.2209 521.551 19.3715 521.268 18.5625C520.904 17.5917 520.056 16.9041 518.44 16.4187C516.5 15.9333 514.359 15.7715 512.056 15.9333C509.713 16.0951 507.774 16.54 506.279 17.3086C506.198 17.349 505.754 17.5513 503.895 17.7131C502.481 17.8749 500.905 17.9962 499.168 18.0771C495.491 18.1985 491.734 18.1985 489.108 18.0771C487.977 18.0771 486.926 18.0771 485.916 17.9558L482.886 17.7131C481.997 17.6726 481.028 17.5917 479.977 17.4704C479.008 17.3895 478.038 17.3086 477.028 17.1468C476.422 17.1063 475.897 17.1063 475.452 17.1063C474.442 17.1063 471.493 17.1063 470.766 19.0883C470.402 20.0187 470.16 21.7985 472.745 23.0929C475.291 24.6704 477.513 25.7625 479.25 26.3693C482.725 27.5828 485.189 27.5019 486.846 26.6524C487.371 26.3693 487.896 26.167 488.34 26.0457C488.987 25.9648 489.472 25.8839 489.876 25.803C490.36 25.7221 490.926 25.6816 491.492 25.6007C492.138 25.5198 492.704 25.4389 493.391 25.3985C493.754 25.3176 494.522 25.2771 496.098 25.1962C497.35 25.1962 498.804 25.1153 500.259 25.0345C501.673 25.0345 503.006 25.0345 504.38 24.9536C505.067 24.9536 505.713 24.9536 506.198 24.9536L506.036 37.5334C505.228 37.5334 504.178 37.5334 502.925 37.5738C499.006 37.6548 494.764 37.6548 491.532 37.5738C489.391 37.5334 488.946 37.4525 488.906 37.4525H488.744C487.896 37.3312 486.886 37.2098 485.714 37.048C484.543 36.8862 483.29 36.684 482.119 36.5222C480.866 36.4008 479.573 36.2795 478.402 36.1986C477.149 36.1177 476.058 36.1177 475.008 36.1986C471.816 36.5222 469.877 37.5334 469.028 39.0705C468.503 40.0817 468.665 40.8503 468.907 41.2952C469.311 42.2256 470.362 42.8323 472.139 43.1964C473.109 43.4391 473.917 43.6413 474.644 43.7626C475.25 43.884 475.654 44.0862 476.139 44.4098C476.422 44.6121 476.624 44.8548 476.826 45.2997C476.987 45.8256 477.109 46.5132 477.109 47.4436V59.7807C477.109 63.7043 477.917 66.2122 479.573 67.4662C481.149 68.5987 483.492 69.2055 486.724 69.2055C489.552 69.2055 493.269 68.7605 497.754 67.9515C502.198 67.1426 506.885 66.0504 511.652 64.7965C516.339 63.583 520.904 62.2886 525.268 60.8324C528.823 59.6594 531.853 58.6077 534.277 57.5964C534.277 61.3583 534.56 64.5538 534.964 67.1426C535.408 69.7718 536.378 71.3493 537.671 71.8752C537.186 71.9156 536.701 71.9561 536.216 71.9965C534.398 72.2392 532.58 72.6033 530.722 73.0887C530.277 73.21 528.904 73.4932 524.5 73.7359C520.985 73.8977 517.147 74.0595 513.026 74.1404C508.864 74.2213 504.663 74.2213 500.623 74.0594C496.623 73.9381 493.512 73.7359 491.371 73.3314C488.866 73.0887 487.169 73.1291 485.997 73.4932C484.3 74.0595 483.896 74.9898 483.856 75.6774C483.775 76.4864 484.139 77.3359 484.866 78.1449C485.512 78.9134 486.239 79.3988 486.926 79.7224C490.724 81.9067 493.673 83.2011 495.895 83.8078C498.158 84.3741 500.097 84.4955 501.794 84.2528C503.289 84.0101 504.743 83.6056 505.956 82.9988C507.006 82.5134 508.299 82.1898 509.794 82.028C513.995 81.9067 517.51 81.7853 520.338 81.7044C522.884 81.5426 525.55 81.4617 528.217 81.3809C529.995 81.3404 531.449 81.2595 532.499 81.219L532.823 96.6708C532.823 99.9877 533.186 103.102 533.954 105.893C534.237 107.066 535.166 110.707 537.671 110.707H537.752C538.721 110.707 539.651 110.1 540.62 108.927C541.388 107.956 542.115 106.621 542.721 105.084C543.408 103.426 543.893 101.525 544.297 99.5023C544.701 97.3989 544.943 95.1337 544.943 92.6259L544.822 81.1786C544.822 80.491 545.024 79.7629 545.266 79.0752C545.59 78.1853 545.792 77.2954 545.913 76.4055C545.994 75.3943 545.751 74.464 545.145 73.7359C544.539 73.0482 543.448 72.4819 541.671 71.9965C541.024 71.9156 540.418 71.8752 539.772 71.8752C541.307 71.2684 542.681 69.4077 543.933 66.01C545.347 62.3695 546.034 57.4751 546.034 51.529V49.102H560.659C562.599 49.102 564.255 48.738 565.427 48.0099C566.76 47.2009 567.528 46.1492 567.689 44.9357C567.932 43.7222 567.447 42.5492 566.437 41.3761L566.356 41.2548Z" fill="#603D22"/>
<path d="M43.2196 62.9824H19.625C11.8274 62.9824 5.48438 69.333 5.48438 77.1398V115.001H43.2196C51.0575 115.001 57.441 108.65 57.441 100.803V63.0229H43.2196V62.9824Z" fill="#F18D00"/>
<path d="M77.0468 62.9824H100.682C108.52 62.9824 114.822 69.333 114.822 77.1398V115.001H77.0468C69.2493 115.001 62.9062 108.65 62.9062 100.803V63.0229H77.0468V62.9824Z" fill="#F18D00"/>
<path d="M0 0C18.1 18.1214 57.4512 -15.3304 57.4512 57.479C11.7569 57.479 0 51.816 0 0Z" fill="#603D22"/>
<path d="M77.0468 57.4733H100.682C108.52 57.4733 114.822 51.1227 114.822 43.316V5.45508H77.0468C69.2493 5.45508 62.9062 11.8057 62.9062 19.6934V57.4733H77.0468Z" fill="#F18D00"/>
</svg>
